PathFileType	4	(X/Y/Z)	/tmp/tmphz8i29mk/org-f5e79b5e/32898/baseball-pitching/20220928/session_662820_hawkeye/trc/001_10A17836-7AA3-4221-8461-2F40718F5DA8.trc
DataRate	CameraRate	NumFrames	NumMarkers	Units	OrigDataRate	OrigDataStartFrame	OrigNumFrames
303.03030303030306	303.03030303030306	10	13	mm	303.03030303030306	795	908
Frame#	Time	LSJC			RSJC			LEJC			REJC			LWJC			RWJC			LHJC			RHJC			LKJC			RKJC			LAJC			RAJC			NECK		
		X1	Y1	Z1	X2	Y2	Z2	X3	Y3	Z3	X4	Y4	Z4	X5	Y5	Z5	X6	Y6	Z6	X7	Y7	Z7	X8	Y8	Z8	X9	Y9	Z9	X10	Y10	Z10	X11	Y11	Z11	X12	Y12	Z12	X13	Y13	Z13

795	2.6202	-508.4692525833502	1544.1257638590666	1660.161645179122	-307.9498725639103	1922.2320220979866	1607.9930148127696	-527.2371860622236	1273.7487992479307	1542.231551393321	-221.46607765310392	2010.225773077055	1327.8794611792148	-539.7481276519959	1176.5311258581164	1278.5008432461561	-199.25729488952834	2157.391607827298	1085.5215908445175	-184.19319697199822	1507.8925708849224	1203.6571994661908	-60.02462123942497	1704.607038054197	1249.4215671085399	-74.34682160875252	1485.9317112655128	771.9040650743339	65.27100551443678	1883.6379820671596	847.687921561707	69.79647428901504	1440.5054274310414	328.3923980148499	362.4913716326568	1971.378457272651	509.16561772428616	-406.0858301373287	1729.9615356981692	1625.7658809765596
796	2.6235	-510.2715647705878	1546.7809693125528	1660.1446264371193	-306.69083176664907	1923.6292906991464	1609.3212000009146	-531.3396460606397	1277.2472299949602	1541.0262597233157	-222.2178974614274	2010.269325409173	1328.3293169784617	-542.520808174797	1184.6656324103421	1276.0410492688927	-201.3058729568358	2158.2047095816115	1086.8666290589272	-186.46891244884895	1510.5828879834596	1203.2451082561922	-62.8638452786948	1707.6688067855475	1248.9372339289905	-75.78476937290249	1488.770664679813	771.8118046817027	59.64969685752167	1883.2543535696484	845.3694942468676	69.17165476721235	1441.4341561203307	328.5369274312347	343.171600605892	1974.7043635028401	494.5203227982317	-407.4150282685503	1732.418275842897	1626.6799951633036
797	2.6268	-512.1636625420034	1549.5084397547223	1660.0578652197769	-305.39119399839274	1925.0057410458303	1610.6648357934757	-535.2526975705108	1280.7975247322636	1539.6859084739417	-223.0492298252998	2010.4984290243558	1328.8493062310897	-545.1344541378824	1192.7428923900904	1273.5408407449509	-203.46004688872495	2159.1308052332593	1088.2052532023756	-188.79013311722431	1513.397368882771	1202.8397937080244	-65.5247340945829	1710.7111889489324	1248.466145348163	-77.16839709957817	1491.5975689556649	771.7703660025254	54.13829864855511	1882.8496195786408	843.0916963074854	68.74409948535923	1442.2793420275502	328.81038170758956	323.3966284406151	1977.8801467411356	480.4734412938297	-408.68171313490626	1734.8844715628024	1627.6406650253632
798	2.6301	-514.1357298123584	1552.285198178944	1659.8926283601193	-304.1026899277184	1926.3648191263371	1612.0507716595037	-538.9289389096799	1284.367242434937	1538.1987582864547	-223.99167177935493	2010.9586676899985	1329.4861986068775	-547.5630745988119	1200.7456221078303	1270.979058881445	-205.74883646241653	2160.158451879999	1089.547569794872	-191.13890042878208	1516.345080516229	1202.4437389428394	-68.0001679798079	1713.7522439040292	1248.0083671188793	-78.49530095398416	1494.3960270081118	771.7772644756039	48.657348522857234	1882.448678267351	840.8351280498109	68.49901634239974	1443.052647535357	329.193788604711	303.18392870774136	1980.8516497856267	467.0720162705786	-409.89176923889136	1737.3430403787936	1628.6443966230263
799	2.6334	-516.1806055555855	1555.0903574719694	1659.6384006860756	-302.87822263950375	1927.712994786364	1613.5015372418072	-542.3210459335788	1287.9246821806291	1536.5548042512085	-225.07576883470702	2011.6885413750983	1330.2796639226792	-549.7803935742007	1208.6574311776	1268.3387791585844	-208.20504985433328	2161.264159925267	1090.8951115606064	-193.50046322189834	1519.434895280605	1202.0575212832189	-70.28695890159685	1716.8092540544715	1247.5619920763158	-79.77139099132974	1497.1525699022811	771.8266266843449	43.124609021167466	1882.075528509656	838.5816630323583	68.4075289510818	1443.7720033506346	329.66083887963873	282.5676604923779	1983.5659308831105	454.3535048543935	-411.0553526963524	1739.7785081748607	1629.6841955021202
800	2.6367	-518.2939186946069	1557.9048958972041	1659.2826320151312	-301.77214650708106	1929.0593614558825	1615.0351796492891	-545.3810888034039	1291.4388407836257	1534.7455378627833	-226.33256757971813	2012.7190926015742	1331.2621880304087	-551.7597229529584	1216.4618655043942	1265.6072852795332	-210.86556000640664	2162.41119311819	1092.2409320880765	-195.8633427912857	1522.6755661397215	1201.6798310332729	-72.38541479400563	1719.898660851927	1247.123162272746	-81.01100073196382	1499.8566194536825	771.9091891368754	37.45490893773781	1881.753784820044	836.3150301874656	68.4268393055644	1444.4618052476903	330.17770653939374	261.5970769389666	1985.9732362750688	442.3458374824051	-412.1867836675035	1742.176871361932	1630.7495767679638
801	2.64	-520.4738544493621	1560.7113404816243	1658.8109459786883	-300.84020829712625	1930.415172146747	1616.664711113133	-548.0611948251775	1294.8795955858602	1532.7645149152725	-227.79451780426973	2014.0721959429993	1332.4581108946581	-553.4749415562235	1224.1418726325348	1262.7765019452313	-213.7703013657518	2163.5477792038732	1093.5697584889715	-198.21935572413707	1526.0751435900763	1201.3074524263811	-74.29975752474932	1723.0358956003543	1246.6860526239418	-82.23708637811478	1502.500714520865	772.0121377219496	31.56045138201752	1881.5068796421924	834.0215192608865	68.49991319228214	1445.1533726125356	330.7026032982753	240.33621598427246	1988.030119213892	431.0649138252697	-413.304567107673	1744.5256003109707	1631.826451447833
802	2.6433	-522.7212393107878	1563.4934682862227	1658.2068218426214	-300.14028645022455	1931.7933345167223	1618.397941873381	-550.3123628254845	1298.2177316888076	1530.6071434067946	-229.49731706178494	2015.7603954766587	1333.8835462561458	-554.9002878234817	1231.6786556795626	1259.8430244413612	-216.96185894482383	2164.6050700839883	1094.8581595548776	-200.56363163924178	1529.6411918924423	1200.9352797936403	-76.0375898945998	1726.2354076173954	1246.2428802569368	-83.48120963025696	1505.080502518412	772.1190987115986	25.35030077779282	1881.3584366025727	831.6906989965003	68.5556679103041	1445.8853875930015	331.1855463369465	218.8616071904808	1989.7007191265607	420.51647114796907	-414.4312518481007	1746.8134367043433	1632.89712279275
803	2.6466	-525.039343203018	1566.2359892457955	1657.4516995813756	-299.73272155212373	1933.2078823595264	1620.2368987189325	-552.0845617698989	1301.425312071897	1528.2712162940509	-231.4809842072577	2017.7854941096193	1335.5453617812345	-556.0111894899771	1239.0509233232544	1256.8086021459007	-220.4835605870348	2165.4945625336695	1096.0748067837758	-202.89464640894244	1533.3804156148956	1200.5562937785126	-77.61011976489414	1729.5105546556351	1245.7838795208597	-84.78361318197096	1507.5949899161458	772.2100075133378	18.73052055375869	1881.3322856224952	829.3163132561511	68.50871488467966	1446.7045095336473	331.56799780729426	197.2612144712514	1990.9591000198623	410.69592221902496	-415.5933899458992	1749.0303543718635	1633.9401849037615
804	2.6499	-527.3685275084597	1568.9112098551636	1656.5799757236696	-299.59033073728784	1934.6465442920469	1622.1979641037008	-553.4226003813661	1304.4979146942283	1525.819422086221	-233.7638808828036	2020.0706777221967	1337.4300734769786	-556.8063239360982	1246.2266408892951	1253.6897089342656	-224.30880124200237	2166.1775360549263	1097.1597006772706	-205.18580905908232	1537.2486401297128	1200.1666536513276	-79.0966135835563	1732.8847647470016	1245.2985687808543	-86.15072939441909	1510.0385681959633	772.2709446317897	11.687084924010383	1881.3659783302187	826.9106057747126	68.37085894543736	1447.5873212050594	331.80581299064335	175.65170056838215	1991.8976894608475	401.5857511172314	-416.79583558704473	1751.1757004025721	1634.9491289029581
